<svg id="Camada_1" data-name="Camada 1" xmlns="http://www.w3.org/2000/svg" viewBox="0 0 492 143"><defs><style>.cls-1{fill:none;stroke-width:2px;}.cls-1,.cls-2{stroke:#fff;stroke-miterlimit:10;}.cls-2{fill:#fff;}</style></defs><title>sendPrancheta 1</title><path class="cls-1" d="M10,9.89H26V120.06H78.77v13.38H10Z"/><path class="cls-1" d="M116.54,94.58,103.7,133.44H87.2l42-123.55h19.25L190.6,133.44h-17l-13.2-38.86Zm40.51-12.47L145,46.55c-2.75-8.07-4.58-15.4-6.42-22.55h-.36c-1.84,7.33-3.85,14.85-6.24,22.37l-12.1,35.74Z"/><path class="cls-1" d="M208.74,11.54A154.3,154.3,0,0,1,237.89,9c16,0,26.22,2.75,33.92,9,6.41,4.77,10.26,12.1,10.26,21.82,0,11.91-7.88,22.36-20.9,27.13v.36c11.74,2.94,25.48,12.65,25.48,31A33.3,33.3,0,0,1,276.21,123c-8.62,7.89-22.55,11.55-42.72,11.55a187.34,187.34,0,0,1-24.75-1.46Zm15.95,50.59h14.48c16.87,0,26.77-8.8,26.77-20.71,0-14.49-11-20.17-27.13-20.17a68.51,68.51,0,0,0-14.12,1.1Zm0,59.21a85.09,85.09,0,0,0,13.38.74c16.5,0,31.72-6,31.72-24,0-16.86-14.48-23.83-31.9-23.83h-13.2Z"/><path class="cls-1" d="M372.08,75.51h-48v44.55h53.53v13.38H308.1V9.89h66.73V23.27H324.05v39h48Z"/><path class="cls-2" d="M465.94,133.44l-15.77-27.31c-6.41-10.45-10.45-17.23-14.3-24.38h-.36c-3.49,7.15-7,13.75-13.39,24.56l-14.85,27.13H388.94l37.77-62.51-36.3-61h18.51l16.32,29c4.58,8.07,8.07,14.3,11.37,20.9h.55c3.48-7.33,6.6-13,11.18-20.9l16.86-29h18.34L446,70l38.49,63.43Z"/></svg>