<!-- Generated by IcoMoon.io -->
<svg version="1.1" xmlns="http://www.w3.org/2000/svg" width="16" height="16" viewBox="0 0 16 16">
<title>trashcan</title>
<path d="M10.5 14c0.277 0 0.5-0.223 0.5-0.5v-7c0-0.277-0.223-0.5-0.5-0.5s-0.5 0.223-0.5 0.5v7c0 0.277 0.223 0.5 0.5 0.5zM5.5 14c0.276 0 0.5-0.223 0.5-0.5v-7c0-0.277-0.224-0.5-0.5-0.5s-0.5 0.223-0.5 0.5v7c0 0.277 0.224 0.5 0.5 0.5zM14.5 3h-2v-1c0-1.105-0.896-2-2-2h-5c-1.104 0-2 0.895-2 2v1h-2l-1.5 1.5c0 0.277 0.224 0.5 0.5 0.5h1.5v10c0 0.552 0.448 1 1 1h10c0.552 0 1-0.448 1-1v-10h1.5c0.277 0 0.5-0.223 0.5-0.5l-1.5-1.5zM5 2c0-0.552 0.448-1 1-1h4c0.552 0 1 0.448 1 1v1h-6v-1zM13 14.5c0 0.277-0.223 0.5-0.5 0.5h-9c-0.276 0-0.5-0.223-0.5-0.5v-9.5h10v9.5zM8 14c0.277 0 0.5-0.223 0.5-0.5v-7c0-0.277-0.223-0.5-0.5-0.5s-0.5 0.223-0.5 0.5v7c0 0.277 0.223 0.5 0.5 0.5z"></path>
</svg>
