<svg id="Camada_1" data-name="Camada 1" xmlns="http://www.w3.org/2000/svg" viewBox="0 0 61 56">
    <defs>
        <style>.cls-1{fill:#FFFFFF;}</style>
    </defs>
    <title>backgroundPrancheta 1</title>
    <path class="cls-1" d="M2.72,23.5a8.46,8.46,0,0,0,2.91,2.21,9,9,0,0,0,3.62.82h20V8.23a8,8,0,0,0-2.51-5.78A8.78,8.78,0,0,0,20.66,0a8.92,8.92,0,0,0-3.88.88,8.62,8.62,0,0,0-3,2.47A8.12,8.12,0,0,0,12.2,6.91a7.9,7.9,0,0,0,.3,3.8,9.21,9.21,0,0,0-3.68-.55,9,9,0,0,0-3.57,1,8.5,8.5,0,0,0-2.8,2.35,7.9,7.9,0,0,0,.27,10Z" />
    <path class="cls-1" d="M58.17,31.89a8.5,8.5,0,0,0-2.92-2.21,9,9,0,0,0-3.62-.82h-20v18.3A8,8,0,0,0,34.17,53a8.77,8.77,0,0,0,6,2.4,8.92,8.92,0,0,0,3.88-.88,8.62,8.62,0,0,0,3-2.47,8.12,8.12,0,0,0,1.54-3.52,7.9,7.9,0,0,0-.3-3.8,9,9,0,0,0,3.68.55,8.86,8.86,0,0,0,3.57-1,8.5,8.5,0,0,0,2.8-2.35,8,8,0,0,0,1.49-3.26,7.79,7.79,0,0,0-.09-3.56A8,8,0,0,0,58.17,31.89Z" />
    <path class="cls-1" d="M55.25,25.71a8.5,8.5,0,0,0,2.92-2.21,8,8,0,0,0,1.66-3.18,7.79,7.79,0,0,0,.09-3.56,8,8,0,0,0-1.49-3.26,8.46,8.46,0,0,0-2.79-2.35,9,9,0,0,0-3.58-1,9.16,9.16,0,0,0-3.67.55,7.78,7.78,0,0,0,.29-3.8,8,8,0,0,0-1.54-3.52,8.53,8.53,0,0,0-3-2.47A8.92,8.92,0,0,0,40.22,0a8.8,8.8,0,0,0-6,2.41,8,8,0,0,0-2.51,5.78v18.3h20A9,9,0,0,0,55.25,25.71Z" />
    <path class="cls-1" d="M5.64,29.68a8.5,8.5,0,0,0-2.92,2.21,8.18,8.18,0,0,0-1.67,3.18,7.94,7.94,0,0,0,1.4,6.82,8.5,8.5,0,0,0,2.8,2.35,8.87,8.87,0,0,0,3.58,1,9,9,0,0,0,3.67-.55,7.78,7.78,0,0,0-.29,3.8A8,8,0,0,0,13.75,52a8.44,8.44,0,0,0,3,2.47,8.92,8.92,0,0,0,3.88.88,8.79,8.79,0,0,0,6-2.4,8.09,8.09,0,0,0,2.51-5.79V28.86h-20A9,9,0,0,0,5.64,29.68Z" />
</svg>